<svg id="Logo" xmlns="http://www.w3.org/2000/svg" xmlns:xlink="http://www.w3.org/1999/xlink" width="476.421" height="120" viewBox="0 0 476.421 120">
  <defs>
    <clipPath id="clip-path">
      <rect id="Rectangle_7" data-name="Rectangle 7" width="476.421" height="120" fill="none"/>
    </clipPath>
    <clipPath id="clip-path-2">
      <rect id="Rectangle_4" data-name="Rectangle 4" width="320.388" height="95.335" fill="none"/>
    </clipPath>
    <clipPath id="clip-path-3">
      <rect id="Rectangle_5" data-name="Rectangle 5" width="100.468" height="38.433" fill="none"/>
    </clipPath>
  </defs>
  <g id="Group_18" data-name="Group 18" opacity="0.94">
    <g id="Group_17" data-name="Group 17">
      <g id="Group_16" data-name="Group 16" clip-path="url(#clip-path)">
        <path id="Path_21" data-name="Path 21" d="M402.452,130.252l2.825-6.029,20.16-3.673-2.825,6.029Z" transform="translate(-334.908 -10.252)" fill="#f6caa7"/>
        <path id="Path_22" data-name="Path 22" d="M445.746,101.743l2.544-5.464,9.329-1.7a7.78,7.78,0,0,1-1.6-4.9,7.487,7.487,0,0,1,1.93-5.228,6.188,6.188,0,0,1,4.758-2.119,6.362,6.362,0,0,1,4.852,2.072,7.436,7.436,0,0,1,1.93,5.275,9.539,9.539,0,0,1-1.977,6.031,7.711,7.711,0,0,1-5.086,3.014Zm17.149-8.762a4.019,4.019,0,0,0,1.977-3.487c0-1.819-.72-2.731-2.169-2.731q-2.069,0-2.072,2.731a3.568,3.568,0,0,0,2.264,3.487" transform="translate(-257.812 -78.301)" fill="#f6caa7"/>
        <path id="Path_23" data-name="Path 23" d="M476.676,102.658l2.544-5.464,9.327-1.7a7.778,7.778,0,0,1-1.6-4.9,7.464,7.464,0,0,1,1.933-5.228,6.178,6.178,0,0,1,4.755-2.119,6.362,6.362,0,0,1,4.852,2.072,7.438,7.438,0,0,1,1.932,5.275,9.542,9.542,0,0,1-1.98,6.031,7.711,7.711,0,0,1-5.086,3.014ZM493.822,93.9a4.022,4.022,0,0,0,1.98-3.487q0-2.728-2.169-2.731-2.073,0-2.072,2.731a3.57,3.57,0,0,0,2.261,3.487" transform="translate(-202.734 -76.672)" fill="#f6caa7"/>
        <g id="Group_9" data-name="Group 9" transform="translate(0 18.731)" opacity="0.97">
          <g id="Group_8" data-name="Group 8">
            <g id="Group_7" data-name="Group 7" clip-path="url(#clip-path-2)">
              <path id="Path_24" data-name="Path 24" d="M430.256,108.482q-6.311-6.594-13.189-6.6a7.468,7.468,0,0,0-8.006,8.009,8.158,8.158,0,0,0,2.447,6.31q2.448,2.261,9.516,4.713,7.066,2.54,9.607,4.8a10.9,10.9,0,0,1,3.771,8.762q0,8.851-8.384,14.318-7.633,4.993-19.88,4.994-14.882,0-22.418-8.668a23.29,23.29,0,0,1-5.559-15.825,23.044,23.044,0,0,1,3.957-13.567l7.817-1.7a26.449,26.449,0,0,0-4.238,14.415q0,8.1,5.464,13,5.368,4.709,14.977,4.708,10.269,0,15.828-4.049,4.33-3.2,4.332-7.725a5.147,5.147,0,0,0-1.93-4.146q-1.935-1.6-7.678-3.579-7.912-2.828-10.928-5.653-4.522-4.142-4.521-11.115,0-7.633,5.37-11.965a14.722,14.722,0,0,1,9.421-3.3,18.113,18.113,0,0,1,14.224,6.31Zm-30.427,61.985q-4.617,0-4.616-4.711,0-4.617,4.616-4.616,4.522,0,4.521,4.616,0,4.709-4.521,4.711m11.963,0q-4.618,0-4.616-4.711,0-4.617,4.616-4.616,4.521,0,4.521,4.616,0,4.709-4.521,4.711" transform="translate(-378.162 -75.133)" fill="#fff"/>
              <path id="Path_25" data-name="Path 25" d="M431.137,130.66q0,10.549-5.559,16.957-5.276,6.123-14.037,6.123a23.407,23.407,0,0,1-11.02-2.825v-7.066a19.824,19.824,0,0,0,9.607,2.636,11.62,11.62,0,0,0,9.421-4.049q3.391-4.054,3.393-11.212V99.1l8.195-4.332Z" transform="translate(-338.346 -74.892)" fill="#fff"/>
              <path id="Path_26" data-name="Path 26" d="M463.431,128.807v7.63H451.749a17.534,17.534,0,0,1-6.971,13.378,19.976,19.976,0,0,1-12.622,4.332,23.285,23.285,0,0,1-11.023-2.731v-7.16a21.06,21.06,0,0,0,9.891,2.639,13.18,13.18,0,0,0,8.715-3.109,9.7,9.7,0,0,0,3.815-7.444q-4.9-.188-7.255-.375-10.173-.567-15.355-6.877-4.334-5.276-4.332-13.659,0-10.265,5.464-16.014,4.9-5.089,12.905-5.089,8.384,0,12.906,4.994,3.862,4.43,3.862,11.587v17.9Zm-19.877-17.332q0-9.61-8.573-9.61a9.1,9.1,0,0,0-7.63,3.534q-2.732,3.533-2.731,9.844,0,12.342,12.057,13.095,2.261.284,6.877.47Z" transform="translate(-309.693 -75.676)" fill="#fff"/>
              <path id="Path_27" data-name="Path 27" d="M515.634,140.753h6.218v7.63h-7.158q-7.537,0-11.776-4.43-3.863,4.43-10.928,4.43H431.417v-7.63h17.521l.284-1.037V91.953l8.1-4.332V122.1q10.741-15.825,26.662-15.825,10.64,0,17.049,7.441A22.917,22.917,0,0,1,506.5,129.26v2.261q0,9.231,9.138,9.232M498.3,131.9V129.26q0-7.349-4.521-11.682a13.338,13.338,0,0,0-9.7-3.768q-9.7,0-17.521,8.759a48.028,48.028,0,0,0-9.232,16.487v1.7h34.008q4.05,0,5.511-1.885t1.46-6.971" transform="translate(-283.329 -87.621)" fill="#fff"/>
              <path id="Path_28" data-name="Path 28" d="M461.906,135.654v-7.63h8.478q9.135,0,9.138-9.421V105.414l8.1-4.332V118.6q0,9.423,9.232,9.421h4.332q9.231,0,9.232-9.421V102.21l8.1-4.238V118.6q0,9.423,9.137,9.421h4.43q9.231,0,9.232-9.421V99.1l8.1-4.335v24.117q0,8.009-4.8,12.527-4.238,4.15-11.3,4.241h-6.5q-8.292,0-12.344-5.559-4.05,5.464-12.057,5.559h-6.5q-8.1,0-12.341-5.559-4.054,5.56-12.341,5.559Z" transform="translate(-229.036 -74.892)" fill="#fff"/>
            </g>
          </g>
        </g>
        <g id="Group_12" data-name="Group 12" transform="translate(375.953 60.278)" opacity="0.97">
          <g id="Group_11" data-name="Group 11">
            <g id="Group_10" data-name="Group 10" clip-path="url(#clip-path-3)">
              <path id="Path_29" data-name="Path 29" d="M613.829,102.562c-1.035,9.488-22.082,50.22-11.9,20.372-21.2,8.715-47.214,14.8-88.572,18.061l2.149-14.179c26.075-1.424,76.89-10.595,98.319-24.254" transform="translate(-513.361 -102.562)" fill="#fff"/>
            </g>
          </g>
        </g>
        <g id="Group_15" data-name="Group 15" transform="translate(375.953 30.138)" opacity="0.97">
          <g id="Group_14" data-name="Group 14">
            <g id="Group_13" data-name="Group 13" clip-path="url(#clip-path-3)">
              <path id="Path_30" data-name="Path 30" d="M613.829,91.723c-1.035,9.488-22.082,50.22-11.9,20.372-21.2,8.715-47.214,14.8-88.572,18.061l2.149-14.179c26.075-1.424,76.89-10.595,98.319-24.254" transform="translate(-513.361 -91.723)" fill="#fff"/>
            </g>
          </g>
        </g>
        <path id="Path_31" data-name="Path 31" d="M613.829,80.885c-1.035,9.488-22.082,50.22-11.9,20.372-21.2,8.715-47.214,14.8-88.572,18.061l2.149-14.179c26.075-1.424,76.89-10.595,98.319-24.254" transform="translate(-137.408 -80.885)" fill="#f6caa7"/>
      </g>
    </g>
  </g>
</svg>
